<svg width="64" height="64" viewBox="0 0 64 64" fill="none" xmlns="http://www.w3.org/2000/svg">
<path d="M33 51C33.5695 51 34.0481 51.4278 34.1118 51.9937L34.9387 59.3443C34.9788 59.7008 34.9292 60.0727 34.6804 60.3312C34.3821 60.641 33.8526 61 33 61C32.1474 61 31.6179 60.641 31.3196 60.3312C31.0708 60.0727 31.0212 59.7008 31.0613 59.3443L31.8882 51.9937C31.9519 51.4278 32.4305 51 33 51Z" fill="black"/>
<path d="M29.6879 49.7947C25.5343 48.6438 24.7626 48.1834 21.7407 44.995C20.9092 44.1177 19.961 42.5578 20.8823 41.4929C21.638 40.6192 23.1038 40.8969 23.8173 41.1247C25.028 41.5113 26.2213 42.0252 27.3824 42.5383C25.9886 40.1215 28.5428 35.23 31.9782 35.2278C34.3691 35.2262 35.6781 37.2786 35.1889 39.5068" stroke="black" stroke-width="3" stroke-linecap="round" stroke-linejoin="round"/>
<path d="M36.4111 49.9116C37.5316 51.4755 41.2171 53.1937 41.9381 49.9116C42.558 47.0897 39.2133 45.0972 37.6341 44.192" stroke="black" stroke-width="3" stroke-linecap="round" stroke-linejoin="round"/>
<path d="M19.1182 36.3482C18.6291 35.825 18.2899 34.8111 18.6339 34.1344C19.2104 33 22.3416 33.2262 22.3416 33.2262C22.3416 33.2262 18.886 31.6696 19.6461 29.4262C19.9677 28.477 21.2337 28.5117 22.0325 28.5112C23.0726 28.5104 24.2732 28.9363 25.2058 29.3776" stroke="black" stroke-width="3" stroke-linecap="round" stroke-linejoin="round"/>
<path d="M25.7358 21.7814C24.6551 22.3416 24.2579 23.8458 24.1482 24.6709C23.967 26.0344 24.1801 27.2206 24.6456 28.5045" stroke="black" stroke-width="3" stroke-linecap="round" stroke-linejoin="round"/>
<path d="M29.5582 27.2623C28.259 26.6524 27.2196 24.8718 26.6432 23.6375C25.5176 21.2274 24.8861 18.8259 24.4734 16.212C24.2916 15.0605 24.2696 13.822 25.3904 13.231C26.5825 12.6024 27.7167 14.0996 28.0754 14.9811C28.6643 16.4279 28.7245 17.9588 29.4036 19.3965C29.9009 20.4493 30.4879 21.5661 31.2486 22.4585" stroke="black" stroke-width="3" stroke-linecap="round" stroke-linejoin="round"/>
<path d="M36.4111 22.5516C36.5307 22.4085 38.3312 20.6287 39.3896 19.2531C40.0818 18.3535 40.4824 17.4054 40.8932 16.5399M42.3172 23.6295C43.6353 21.9788 44.7034 19.987 45.2013 17.937C45.5158 16.6424 45.4746 15.0012 44.239 14.1887C42.6857 13.1672 41.4198 15.4304 40.8932 16.5399M31.8281 11.7652C31.8281 11.7652 29.6947 4.70779 31.9077 4.67222C33.1737 4.65187 33.2926 7.52065 33.6849 7.38379C34.1701 7.21453 34.1152 5.57312 34.6335 4.46204C35.6627 2.25628 37.7013 2.36639 38.6248 4.67781C39.4483 6.73906 38.5912 9.83603 38.2656 11.9297M38.2656 11.9297C38.6522 11.1364 39.0937 10.6698 40.2736 11.4634C41.4535 12.2569 41.4535 14.8591 40.8932 16.5399M38.2656 11.9297L37.5759 14.1887" stroke="black" stroke-width="3" stroke-linecap="round" stroke-linejoin="round"/>
<path d="M36.4111 29.8453C37.3473 29.3654 38.5487 28.296 39.6439 28.9841C40.5035 29.5243 39.9843 30.9265 39.5337 31.5481C39.2386 31.9552 41.0154 30.4229 42.3189 29.6567C44.1669 28.5703 46.3634 27.3676 46.4942 30.5803C46.6203 33.6787 43.1989 37.5457 40.4681 38.4067" stroke="black" stroke-width="3" stroke-linecap="round" stroke-linejoin="round"/>
<path d="M44.8151 38.0291C45.8994 41.8725 40.6957 43.5902 37.5316 44.192" stroke="black" stroke-width="3" stroke-linecap="round" stroke-linejoin="round"/>
</svg>
