<svg width="64" height="64" viewBox="0 0 64 64" fill="none" xmlns="http://www.w3.org/2000/svg">
<path d="M52.816 20.3921C58.9035 19.168 62.0974 22.1334 62.7586 25.9944C63.4198 29.8553 62.4716 32.9154 55.2234 34.3728C50.9381 35.0932 47.8845 32.5158 47.2233 28.6549C46.5621 24.7939 48.5307 21.1125 52.816 20.3921Z" fill="black"/>
<path d="M35.6448 12.3809C39.4805 7.49795 43.8349 7.68007 46.8444 10.1876C49.8538 12.6951 51.119 15.6383 46.552 21.4522C43.7602 24.7821 39.7643 24.804 36.7549 22.2965C33.7455 19.789 32.853 15.7108 35.6448 12.3809Z" fill="black"/>
<path d="M42.502 43.7863C43.0733 49.9693 39.7859 52.8306 35.8765 53.0785C31.9672 53.3264 29.0251 52.0589 28.3448 44.697C28.0831 40.3595 30.9698 37.5966 34.8791 37.3487C38.7884 37.1008 42.2403 39.4488 42.502 43.7863Z" fill="black"/>
<path d="M57.8032 41.4943C61.0795 46.7689 59.4189 50.7984 56.0332 52.7686C52.6475 54.7387 49.4491 54.9209 45.5481 48.6405C43.3741 44.8781 44.7203 41.1158 48.106 39.1457C51.4916 37.1756 55.6292 37.7319 57.8032 41.4943Z" fill="black"/>
<path d="M6.12757 14.9409C14.9918 17.67 25.8857 22.2215 34.4523 27.4033M47.9379 39.5728C45.9516 35.496 40.8512 31.2738 34.4523 27.4033M34.4523 27.4033C31.6783 26.065 28.7638 27.6542 27.807 29.2433M27.807 29.2433C21.2475 26.663 9.30483 30.6957 5.43354 39.436C1.56225 48.1764 3.1108 52.1493 4.0549 56.9409C8.53064 56.1221 14.0314 57.4338 19.9811 46.4484C25.9308 35.4631 25.8621 32.4736 27.807 29.2433Z" stroke="black" stroke-width="4" stroke-linecap="round" stroke-linejoin="round"/>
<path d="M27.9379 28.9409C27.9379 28.9409 18.8055 33.6222 13.1544 40.8514C7.50328 48.0807 3.93788 56.9409 3.93788 56.9409" stroke="black" stroke-width="2" stroke-linecap="round" stroke-linejoin="round"/>
</svg>
