<svg width="30" height="30" viewBox="0 0 30 30" fill="none" xmlns="http://www.w3.org/2000/svg">
<path d="M13 12C19.0751 12 24 14.5868 24 17.7778C24 19.4896 24 20.5104 24 22.2222C24 25.4132 19.0751 28 13 28C6.92487 28 2 25.4132 2 22.2222C2 20.5106 2 19.4894 2 17.7778C2 14.5868 6.92487 12 13 12Z" fill="#98B0FF"/>
<mask id="mask0_2039_12547" style="mask-type:alpha" maskUnits="userSpaceOnUse" x="0" y="11" width="27" height="19">
<path d="M7 15L6 11H0V30H27V26.5V16L21.5 18H12L7 15Z" fill="white"/>
</mask>
<g mask="url(#mask0_2039_12547)">
<path d="M24 17.5C24 17.5 24 21.853 24 22.2192C24 25.688 19.0751 28.5 13 28.5C6.92487 28.5 2 25.688 2 22.2192C2 21.834 2 17.5 2 17.5" stroke="#2B47A6" stroke-width="2"/>
<path d="M13 12C16.1804 12 19.01 12.7006 21.0088 13.7832C23.0469 14.8872 24 16.2462 24 17.5C24 18.7538 23.0469 20.1128 21.0088 21.2168C19.01 22.2994 16.1804 23 13 23C9.81963 23 6.98998 22.2994 4.99121 21.2168C2.95306 20.1128 2 18.7538 2 17.5C2 16.2462 2.95306 14.8872 4.99121 13.7832C6.98998 12.7006 9.81963 12 13 12Z" stroke="#2B47A6" stroke-width="2"/>
</g>
<path d="M17 2C23.0751 2 28 4.5868 28 7.77778C28 9.48963 28 10.5104 28 12.2222C28 15.4132 23.0751 18 17 18C10.9249 18 6 15.4132 6 12.2222C6 10.5106 6 9.4894 6 7.77778C6 4.5868 10.9249 2 17 2Z" fill="#98B0FF"/>
<path d="M28 7.5C28 7.5 28 11.853 28 12.2192C28 15.688 23.0751 18.5 17 18.5C10.9249 18.5 6 15.688 6 12.2192C6 11.834 6 7.5 6 7.5" stroke="#2B47A6" stroke-width="2"/>
<path d="M17 2C20.1804 2 23.01 2.70057 25.0088 3.7832C27.0469 4.8872 28 6.24616 28 7.5C28 8.75384 27.0469 10.1128 25.0088 11.2168C23.01 12.2994 20.1804 13 17 13C13.8196 13 10.99 12.2994 8.99121 11.2168C6.95306 10.1128 6 8.75384 6 7.5C6 6.24616 6.95306 4.8872 8.99121 3.7832C10.99 2.70057 13.8196 2 17 2Z" stroke="#2B47A6" stroke-width="2"/>
</svg>
