<svg width="64" height="64" viewBox="0 0 64 64" fill="none" xmlns="http://www.w3.org/2000/svg">
<path d="M41.8006 16.7323C42.2581 15.9937 42.6091 14.7402 42.3758 12.7793C41.8952 8.73664 40.4534 6.311 38.6157 6.02224C37.284 5.81289 36.5461 7.12001 35.8642 8.32831L35.8625 8.33117C35.604 8.78902 35.3536 9.23277 35.0817 9.57405C34.0922 10.8157 31.5194 13.8767 24.2817 16.9953C17.6461 19.8545 16.7138 21.0633 15.1667 23.0693L15.1483 23.0937L15.0656 23.2004C14.9566 23.3412 14.8439 23.4867 14.7257 23.6369C13.6142 24.9725 11.8456 28.4935 13.5753 31.9745M41.8006 16.7323C45.578 17.77 49.0223 20.3888 50.6315 23.8101C51.7951 26.6465 51.8608 30.0313 50.989 33.122M41.8006 16.7323C40.0238 19.6008 37.6089 21.4082 34.3389 22.4926M50.989 33.122C55.6133 35.3576 59 40.3596 59 45.6986C59 52.5937 53.9296 57.5537 46.7582 57.9715V58H18.09V57.9937C9.2093 57.7784 4.99998 51.8492 5 44.9477C5.00002 40.3273 9.00146 34.8131 13.4696 32.9221C13.4675 32.517 13.508 32.2078 13.5753 31.9745M50.989 33.122C50.6907 34.2782 49.427 36.8435 46.7582 37.8556M13.5753 31.9745C14.5621 33.9349 18.8974 37.9641 28.344 38.3979" stroke="black" stroke-width="4" stroke-linecap="round" stroke-linejoin="round"/>
</svg>
