<svg width="64" height="64" viewBox="0 0 64 64" fill="none" xmlns="http://www.w3.org/2000/svg">
<path d="M14.7349 16.0411C14.2954 21.4934 10 30.5012 10 38.7171C9.99999 46.9331 12.6224 51.1239 13.0064 52.1632C13.7349 54.135 10.821 56.7923 12.278 58.4355C13.7349 60.0786 16.4488 57.8392 18.7414 57.7782C23.6501 57.6474 22.748 59.75 31.4894 59.75C40.2308 59.75 38.7397 57.6665 43.5089 57.7782C45.8017 57.8319 48.8797 60.0786 50.3366 58.4355C51.9454 56.6208 49.2439 54.135 49.2439 52.1632C49.2439 51.0552 52.6147 48.5763 52.9789 39.7031C53.3431 30.8298 48.8822 24.2483 48.2439 16.0411M14.7349 16.0411C23.8407 16.0411 24.7468 20.3803 31.4894 20.4715C37.9588 20.559 39.5025 16.0411 48.2439 16.0411M14.7349 16.0411H12.2339C11.0421 16.0411 10.1148 15.0053 10.2461 13.8208L10.5626 10.965C10.6608 10.0788 11.3338 9.3646 12.2127 9.21403L14.9213 8.75M48.2439 16.0411H50.619C51.8545 16.0411 52.7945 14.9319 52.5919 13.7131L52.1156 10.8481C51.9779 10.0195 51.337 9.36528 50.5115 9.21039L48.0575 8.75" stroke="black" stroke-width="4" stroke-linecap="round" stroke-linejoin="round"/>
<path d="M31.7848 13.7498C27.175 13.7774 27.7319 11.0297 20.5874 10.9327C20.0374 10.9252 19.8407 10.1296 20.338 9.89438L22.4082 8.91543C23.2381 8.52298 23.8688 7.80478 24.1507 6.9311C24.7167 5.17707 26.6017 4.21834 28.3526 4.794L30.1761 5.39353C30.3861 5.46256 30.613 5.46008 30.8215 5.38649L32.9302 4.64182C34.4097 4.11937 36.0542 4.68403 36.9006 6.00512C37.3856 6.762 38.1521 7.29446 39.0307 7.48471L40.5957 7.82359C41.8806 8.10182 42.7975 9.23849 42.7975 10.5531C42.7975 10.7999 42.5952 10.9994 42.3485 11.0055C36.9002 11.1402 36.3999 13.7222 31.7848 13.7498Z" fill="black"/>
<path d="M34.3333 34.55H32.8333V35.0593L33.1434 35.4633L34.3333 34.55ZM28.6667 34.55L29.8566 35.4633L30.1667 35.0593V34.55H28.6667ZM27.3375 26.25C26.5091 26.25 25.8375 26.9216 25.8375 27.75C25.8375 28.5784 26.5091 29.25 27.3375 29.25V27.75V26.25ZM35.6625 29.25C36.4909 29.25 37.1625 28.5784 37.1625 27.75C37.1625 26.9216 36.4909 26.25 35.6625 26.25V27.75V29.25ZM37.8874 49.75V48.25H25.1126V49.75V51.25H37.8874V49.75ZM34.3333 27.75H32.8333V34.55H34.3333H35.8333V27.75H34.3333ZM34.3333 34.55L33.1434 35.4633L39.8706 44.2278L41.0605 43.3145L42.2504 42.4012L35.5232 33.6367L34.3333 34.55ZM21.9395 43.3145L23.1294 44.2278L29.8566 35.4633L28.6667 34.55L27.4768 33.6367L20.7496 42.4012L21.9395 43.3145ZM28.6667 34.55H30.1667V27.75H28.6667H27.1667V34.55H28.6667ZM27.3375 27.75V29.25H35.6625V27.75V26.25H27.3375V27.75ZM25.1126 49.75V48.25C23.0396 48.25 21.8673 45.8722 23.1294 44.2278L21.9395 43.3145L20.7496 42.4012C17.9729 46.0189 20.5521 51.25 25.1126 51.25V49.75ZM37.8874 49.75V51.25C42.4479 51.25 45.0272 46.0189 42.2504 42.4012L41.0605 43.3145L39.8706 44.2278C41.1327 45.8722 39.9604 48.25 37.8874 48.25V49.75Z" fill="black"/>
<path d="M26.5206 43.8273L29.4049 40.6547C29.7839 40.2377 30.3213 40 30.8847 40H32.1153C32.6788 40 33.2161 40.2377 33.5951 40.6547L36.4794 43.8273C37.0634 44.4697 36.6076 45.5 35.7395 45.5L27.2606 45.5C26.3924 45.5 25.9366 44.4697 26.5206 43.8273Z" fill="black"/>
</svg>
