<svg width="64" height="64" viewBox="0 0 64 64" fill="none" xmlns="http://www.w3.org/2000/svg">
<path d="M17.8142 23.4902C18.312 23.9879 17.9111 23.587 17.9111 23.587C19.1245 24.8004 18.8352 25.6281 19.0036 27.3305L18.8517 33.6489C19.1562 36.8035 19.1757 37.4759 21.4491 39.7837C23.0835 41.4475 23.9201 40.9636 26.8663 39.4717C24.8785 43.2327 25.4027 44.4786 27.9424 46.2279C29.078 47.01 31.0772 45.9311 32.5659 45.1713C31.9027 46.6339 30.9528 48.2958 31.4579 49.5373C31.7045 50.1471 33.2471 51.7045 33.7992 52.0258C35.0066 52.7227 36.8344 51.7178 38.3546 50.96C36.6361 54.4454 36.6871 55.8051 39.1658 57.4609C41.8913 59.2831 43.7802 57.3976 45.6168 55.5542L53.8326 47.3385L55.683 45.4914C58.7034 42.4681 59.0007 40.7767 55.9737 37.7883C54.7222 36.5543 52.7647 37.4034 50.793 38.5254L50.8198 38.4583C51.4115 36.9497 52.7018 35.2799 52.0457 33.9912C51.8279 33.5609 50.1729 31.9109 49.7197 31.6454C48.5096 30.9344 46.5549 31.9251 45.006 32.7384C45.6246 31.4347 46.7829 29.608 46.3835 28.4624C46.1894 27.9075 44.5412 26.2643 44.0257 25.9366C42.9438 25.2451 40.9548 26.0284 39.5254 26.9069L39.308 27.0404C39.94 25.6661 41.0924 23.9225 40.645 22.7141C40.3897 22.0189 38.6857 20.4583 38.0753 20.0544C36.2037 18.8163 28.7677 19.2898 26.2022 19.0072C24.7496 18.8467 24.1256 18.5963 23.4712 18.0269L23.3744 17.93" stroke="black" stroke-width="4" stroke-linecap="round" stroke-linejoin="round"/>
<rect x="7" y="22.7373" width="16" height="6" rx="2" transform="rotate(-75 7 22.7373)" fill="black"/>
</svg>
