<svg width="64" height="64" viewBox="0 0 64 64" fill="none" xmlns="http://www.w3.org/2000/svg">
<path d="M3.20314 61H60.2969" stroke="black" stroke-width="4" stroke-linecap="round"/>
<path d="M32.4213 2.96462C32.4026 2.67633 32.267 2.40355 32.0499 2.20612C31.8325 2.0087 31.5513 1.90279 31.2626 1.91187C30.974 1.92095 30.7 2.04433 30.4954 2.25503C30.2911 2.46573 30.173 2.74649 30.1724 3.03538C30.1724 3.03538 30.1724 3.03538 30.1724 3.03538C30.1716 4.00136 30.1686 4.93272 30.1654 5.89479C30.1556 23.0153 29.4464 40.0748 28.4591 57.1655C28.4053 58.1339 28.3523 59.0517 28.2977 60.0216C28.2521 60.8164 28.5266 61.5863 29.0759 62.1622C29.6244 62.7382 30.4028 63.0731 31.2247 63.0928C32.0466 63.1126 32.8403 62.8155 33.4158 62.2666C33.9922 61.7177 34.3034 60.9619 34.296 60.1658C34.296 60.1658 34.296 60.1658 34.296 60.1658C34.2881 59.193 34.2787 58.2722 34.27 57.3005C34.1339 40.1613 33.7184 22.9355 32.6019 5.82372C32.5425 4.86147 32.483 3.93026 32.4213 2.96462Z" fill="black"/>
<path d="M52.3079 23.3997C52.3468 23.1187 52.2689 22.827 52.0997 22.5905C51.9301 22.3539 51.6831 22.1918 51.4047 22.1383C51.1262 22.0848 50.8368 22.1439 50.5915 22.3008C50.3468 22.4578 50.1664 22.6998 50.0983 22.9753C50.0983 22.9753 50.0983 22.9753 50.0983 22.9753C49.9509 23.5772 49.811 24.1458 49.666 24.7483C47.0257 35.319 45.1891 46.3322 44.3556 57.2734C44.3037 57.8894 44.2539 58.4818 44.2044 59.0993C44.1394 59.8934 44.3963 60.6644 44.9429 61.2433C45.488 61.8222 46.278 62.1616 47.1149 62.1862C47.9519 62.2108 48.7605 61.9184 49.3387 61.3725C49.9183 60.8267 50.2201 60.0722 50.2018 59.2757C50.2018 59.2757 50.2018 59.2757 50.2018 59.2757C50.1886 58.664 50.1757 58.0777 50.1648 57.4687C49.875 46.6577 50.5346 35.9721 52.0616 25.1983C52.1445 24.5879 52.2224 24.0106 52.3079 23.3997Z" fill="black"/>
<path d="M10.0949 25.3811C10.0617 25.1002 10.1454 24.8105 10.3186 24.5775C10.4923 24.3444 10.7413 24.1869 11.0198 24.1383C11.2983 24.0896 11.5859 24.1533 11.8284 24.3137C12.0704 24.4742 12.2473 24.7183 12.3113 24.9939C12.3113 24.9939 12.3113 24.9939 12.3113 24.9939C12.4424 25.5628 12.568 26.1045 12.6971 26.6731C15.0458 36.7033 16.7828 47.0201 17.9889 57.2784C18.0594 57.8581 18.1275 58.4112 18.1967 58.9919C18.2927 59.783 18.0656 60.5625 17.5402 61.1606C17.0162 61.7587 16.2367 62.1264 15.3987 62.1811C14.5607 62.2359 13.7401 61.9727 13.1427 61.448C12.5439 60.9233 12.2173 60.1799 12.2095 59.3831C12.2095 59.3831 12.2095 59.3831 12.2095 59.3831C12.2029 58.8027 12.1975 58.25 12.1896 57.6711C12.1088 47.4224 11.5283 37.2898 10.2946 27.0847C10.2276 26.5085 10.1641 25.9585 10.0949 25.3811Z" fill="black"/>
<path d="M42.2938 17.5826C42.3018 17.2972 42.1924 17.0148 41.997 16.7981C41.8012 16.5815 41.5355 16.4483 41.2509 16.4273C40.9663 16.4064 40.6839 16.4992 40.4585 16.6848C40.2335 16.8705 40.0838 17.1338 40.0499 17.4174C40.0499 17.4174 40.0499 17.4174 40.0499 17.4174C39.9666 18.1232 39.8864 18.7929 39.804 19.498C38.307 31.9366 37.1469 44.5108 36.4763 57.0615C36.4365 57.7693 36.3979 58.448 36.3595 59.1575C36.3153 59.9527 36.592 60.7186 37.1496 61.2868C37.7059 61.855 38.4975 62.179 39.3294 62.1873C40.1612 62.1956 40.9592 61.8875 41.5268 61.3306C42.0956 60.7736 42.3875 60.0134 42.3592 59.2175C42.3592 59.2175 42.3592 59.2175 42.3592 59.2175C42.335 58.5111 42.3112 57.8356 42.2884 57.1313C41.8341 44.6474 41.861 32.1952 42.2352 19.6738C42.2551 18.9653 42.2729 18.2921 42.2938 17.5826Z" fill="black"/>
<path d="M19.3037 15.8109C19.2847 15.5254 19.3833 15.2388 19.5706 15.0148C19.7584 14.7907 20.0195 14.6477 20.3037 14.6163C20.5879 14.585 20.8739 14.6676 21.106 14.8454C21.3376 15.0231 21.4964 15.2814 21.5401 15.5641C21.5401 15.5641 21.5401 15.5641 21.5401 15.5641C21.6525 16.2977 21.7603 16.9961 21.8709 17.7288C23.8949 30.6653 25.3192 43.834 26.0164 56.9583C26.0589 57.6997 26.0999 58.4075 26.1404 59.1502C26.185 59.9454 25.9088 60.7119 25.3526 61.2815C24.7976 61.851 24.0082 62.1769 23.1779 62.1872C22.3476 62.1976 21.5503 61.8914 20.9813 61.3358C20.4112 60.7802 20.1161 60.0208 20.1409 59.2248C20.1409 59.2248 20.1409 59.2248 20.1409 59.2248C20.1629 58.4866 20.1845 57.7833 20.2046 57.0469C20.6314 44.0136 20.3505 31.0463 19.4475 17.9906C19.3992 17.2533 19.3538 16.5498 19.3037 15.8109Z" fill="black"/>
</svg>
